<svg width="50" height="50" viewBox="0 0 50 50" fill="none" xmlns="http://www.w3.org/2000/svg">
<path d="M39.7292 26.4792V18.5417C39.7292 15.2083 37.0208 12.5 33.6875 12.5H16.6042C13.2708 12.5 10.5625 15.2083 10.5625 18.5417V26.4792" stroke="black" stroke-linecap="round" stroke-linejoin="round"/>
<path d="M41.8126 37.5V31.0417C41.8126 27.7083 39.1042 25 35.7709 25H14.5209C11.1876 25 8.47925 27.7083 8.47925 31.0417V37.5H41.8126Z" stroke="black" stroke-linecap="round" stroke-linejoin="round"/>
<path d="M41.8333 33.333H9.39575" stroke="black" stroke-linecap="round" stroke-linejoin="round"/>
<path d="M8.47925 37.5V41.6667H12.6459V37.6042" stroke="black" stroke-linecap="round" stroke-linejoin="round"/>
<path d="M37.6458 37.5V41.6667H41.8124V37.6042" stroke="black" stroke-linecap="round" stroke-linejoin="round"/>
<path d="M16.8751 20.833H20.9376C22.1251 20.833 23.0626 21.7913 23.0626 22.958V24.9997H14.7292V22.958C14.7292 21.7705 15.6876 20.833 16.8542 20.833H16.8751Z" stroke="black" stroke-linecap="round" stroke-linejoin="round"/>
<path d="M29.3751 20.833H33.4376C34.6251 20.833 35.5626 21.7913 35.5626 22.958V24.9997H27.2292V22.958C27.2292 21.7705 28.1876 20.833 29.3542 20.833H29.3751Z" stroke="black" stroke-linecap="round" stroke-linejoin="round"/>
</svg>
