<svg width="200" height="200" viewBox="0 0 200 200" fill="none" xmlns="http://www.w3.org/2000/svg">
<path d="M154.423 142.772C154.438 144.116 154.092 145.87 153.731 147.316C151.215 157.489 140.042 168.904 124.315 167.864C110.063 166.925 98.4521 160.079 98.4521 150.475C98.4521 140.872 110.033 133.085 124.315 133.085C138.596 133.085 154.333 133.17 154.423 142.772Z" fill="#EA596E"/>
<path d="M124.314 134.698C116.644 134.698 99.1353 136.823 95.1165 136.823C88.0186 136.823 82.2603 141.279 82.2603 146.782C82.2603 149.427 83.6165 151.817 85.7873 153.6C85.7873 153.6 90.554 158.386 99.1394 156.09C102.898 155.086 109.01 147.621 119.771 146.436C125.129 145.842 135.171 149.992 152.817 150.092C153.575 148.461 153.731 147.327 153.731 147.327C153.731 137.715 138.596 134.698 124.314 134.698Z" fill="#DD2E44"/>
<path d="M153.731 147.316C153.731 147.316 164.079 145.216 170.515 136.746C178.015 126.869 177.029 116.298 177.029 116.298C184.629 102.071 174.661 88.7311 174.661 88.7311C173.671 73.7123 164.392 67.4894 164.392 67.4894C158.369 53.1644 145.046 49.3123 145.046 49.3123C134.583 37.0644 116.023 37.4582 116.023 37.4582C116.023 37.4582 98.6335 31.079 74.7606 38.2498C70.8126 39.4352 57.5835 42.1998 47.9085 48.1269C17.4106 66.8123 15.1043 95.9477 15.5293 100.685C17.8939 127.162 36.4543 131.904 48.3001 134.669C51.0626 142.177 61.2314 156.008 79.4939 150.873C102.002 146.923 111.479 140.204 117.008 140.204C122.538 140.204 137.938 146.131 153.731 147.316Z" fill="#F4ABBA"/>
<path d="M96.8082 104.746C107.839 98.7939 113.819 99.3481 119.098 99.8272C120.775 99.9793 122.362 100.098 123.969 100.088C133.371 99.8752 140.985 95.9106 144.354 92.0752C145.217 91.0877 145.117 89.5939 144.135 88.7252C143.16 87.8627 141.667 87.9522 140.789 88.9397C138.194 91.8981 131.792 95.1668 123.86 95.346C122.437 95.3897 121.012 95.246 119.533 95.1085C113.871 94.5835 106.839 93.9377 94.5582 100.573C91.4061 102.275 87.0853 102.906 82.404 103.379C71.9936 88.3418 78.2561 75.2439 80.0478 72.1231C80.2228 72.1335 80.3936 72.1897 80.5749 72.1897C82.4686 72.1897 84.3749 71.7252 86.0999 70.7481C87.2374 70.1022 87.6395 68.6564 86.9957 67.5189C86.3499 66.3814 84.9061 65.9772 83.7686 66.6231C80.7353 68.3397 76.7457 67.3481 74.8603 64.4085C74.154 63.3022 72.6895 62.9814 71.5895 63.6918C70.4915 64.3981 70.1686 65.8627 70.8749 66.9647C71.9978 68.7231 73.5811 70.046 75.3665 70.9335C72.8978 75.9502 68.2124 89.1439 77.129 103.896C70.8561 104.513 64.5728 105.4 59.654 108.573C56.479 110.621 53.2332 113.619 50.7561 117.067C47.7749 116.554 36.8624 113.865 34.9582 101.744C36.1415 100.823 37.0999 99.6106 37.6915 98.1106C38.1749 96.8918 37.5769 95.5168 36.3603 95.0335C35.1415 94.5502 33.7686 95.1481 33.2853 96.3668C32.8624 97.4335 32.0999 98.2106 31.1332 98.5522C30.1769 98.8939 29.0915 98.7793 28.0874 98.221C26.9353 97.5793 25.4999 98.0022 24.8644 99.1397C24.229 100.284 24.6415 101.729 25.7832 102.365C27.129 103.115 28.5707 103.494 30.0019 103.494C30.1769 103.494 30.3415 103.413 30.5165 103.404C32.7728 114.846 41.8082 119.873 48.202 121.396C47.3665 123.236 46.804 125.133 46.6332 127.048C46.5186 128.348 47.4811 129.504 48.7832 129.619L48.9978 129.627C50.2103 129.627 51.2478 128.704 51.3561 127.465C51.8686 121.713 57.352 115.704 62.2228 112.552C66.7895 109.606 73.477 108.986 79.9478 108.383C86.227 107.808 92.1603 107.258 96.8082 104.746ZM157.773 97.6127C157.152 98.7606 157.579 100.202 158.721 100.823C159.081 101.023 159.473 101.117 159.858 101.117C160.692 101.117 161.502 100.677 161.933 99.8897C162.023 99.7272 170.66 83.5335 154.489 72.6502C153.408 71.9293 151.935 72.2085 151.2 73.2939C150.471 74.3814 150.76 75.8564 151.846 76.5856C164.373 85.0168 158.048 97.1002 157.773 97.6127ZM59.5582 59.3231C60.2978 59.3231 61.0228 58.9835 61.4832 58.3377C68.354 48.7731 77.8686 52.0439 78.2707 52.196C79.4978 52.6418 80.8499 52.0168 81.304 50.7918C81.7582 49.5647 81.1332 48.2043 79.9061 47.7481C75.3561 46.0606 64.852 45.5293 57.6353 55.5731C56.8728 56.6314 57.1145 58.1147 58.1749 58.8793C58.5978 59.1814 59.0811 59.3231 59.5582 59.3231ZM121.5 50.371C132.044 49.5127 136.837 57.1606 137.056 57.521C137.502 58.271 138.287 58.6877 139.098 58.6877C139.506 58.6877 139.923 58.5835 140.298 58.3606C141.425 57.6981 141.804 56.246 141.146 55.1168C140.889 54.6856 134.796 44.6002 121.131 45.6418C119.827 45.7418 118.856 46.8856 118.956 48.1939C119.06 49.4981 120.239 50.4897 121.5 50.371ZM164.856 119.661C163.692 119.594 162.406 120.519 162.302 121.827C162.294 121.913 161.539 129.979 153.252 132.706C152.01 133.115 151.333 134.45 151.746 135.698C152.067 136.694 153.002 137.329 153.996 137.329C154.242 137.329 154.489 137.292 154.735 137.211C165.975 133.521 166.989 122.681 167.027 122.221C167.127 120.913 166.16 119.765 164.856 119.661Z" fill="#EA596E"/>
<path d="M47.575 96.6171C47.2355 97.8838 47.9834 99.1838 49.248 99.5255C49.4521 99.5817 49.6605 99.6046 49.8646 99.6046C50.9125 99.6046 51.8646 98.9088 52.148 97.8505C53.048 94.4796 56.5417 92.3171 59.9771 93.0421C61.2605 93.3026 62.5105 92.4921 62.7813 91.2067C63.0521 89.9255 62.2313 88.6692 60.948 88.3984C58.9292 87.9734 56.9021 88.1713 55.0334 88.8067C49.5084 79.3505 50.5855 70.0275 50.6 69.9276C50.7688 68.6338 49.8605 67.4421 48.5667 67.263C47.2771 67.1067 46.0834 67.9942 45.9042 69.288C45.8417 69.7484 44.5771 80.2713 50.9396 91.1692C49.3584 92.5963 48.1542 94.4609 47.575 96.6171ZM100.546 84.9046C102.475 83.1171 105.569 83.1505 107.442 84.9755C107.906 85.4213 108.498 85.6442 109.096 85.6442C109.715 85.6442 110.331 85.4025 110.792 84.9234C111.7 83.9838 111.681 82.4817 110.744 81.5713C109.654 80.513 108.35 79.8067 106.967 79.3651C108.371 74.5463 107.815 72.4088 106.513 68.4005C106.285 67.7046 106.033 66.9255 105.769 66.0401L105.627 65.5651C103.902 59.8359 102.76 56.0567 106.04 50.7213C106.725 49.6067 106.375 48.1463 105.263 47.4588C104.167 46.7755 102.694 47.113 102.002 48.238C97.6042 55.388 99.2209 60.7421 101.092 66.9401L101.233 67.4151C101.513 68.3338 101.769 69.1401 102.006 69.8671C103.177 73.4755 103.531 74.6838 102.1 79.0484C100.352 79.3755 98.6792 80.1671 97.3146 81.438C96.3584 82.3296 96.3063 83.8317 97.1959 84.7901C98.0917 85.7484 99.5938 85.7963 100.546 84.9046ZM130.706 70.7484C132.085 70.7484 133.479 70.4588 134.777 69.8421C135.963 69.2838 136.469 67.8692 135.91 66.6838C135.356 65.4984 133.925 65.0046 132.758 65.5505C130.379 66.6692 127.446 65.6984 126.2 63.3838C125.579 62.2275 124.135 61.8046 122.992 62.4109C121.842 63.0275 121.406 64.4692 122.025 65.6213C122.879 67.215 124.148 68.4713 125.627 69.3442C123.083 75.5338 124.527 82.1067 125.708 85.5921C126.04 86.5838 126.963 87.2046 127.954 87.2046C128.204 87.2046 128.456 87.1671 128.713 87.0817C129.954 86.663 130.617 85.3171 130.196 84.0796C129.4 81.7171 127.854 75.7526 130.185 70.6776C130.367 70.6859 130.531 70.7484 130.706 70.7484ZM153.438 115.463C153.348 114.159 152.219 113.13 150.921 113.248C146.117 113.59 142.023 109.944 141.696 105.173C141.6 103.869 140.44 102.896 139.169 102.967C137.867 103.057 136.881 104.19 136.967 105.494C137.16 108.292 138.227 110.815 139.848 112.869C136.038 117.355 131.048 118.632 128.267 118.959C125.806 119.253 123.656 119 121.169 118.707C118.89 118.446 116.313 118.148 113.123 118.242L113.098 118.246C113.004 116.89 112.681 114.913 111.654 113.267C110.963 112.163 109.498 111.825 108.39 112.519C107.285 113.211 106.944 114.675 107.64 115.786C108.275 116.805 108.394 118.432 108.394 119.223C106.006 120.082 103.94 121.344 102.073 122.563C98.7375 124.734 96.1063 126.45 92.15 125.559C88.5688 124.74 84.9813 124.573 81.9396 125C81.4646 123.809 80.7167 122.388 79.5605 121.292C78.6084 120.39 77.1105 120.428 76.2105 121.386C75.3146 122.336 75.3521 123.838 76.3042 124.74C76.7125 125.123 77.0355 125.684 77.2959 126.242C72.0688 128.396 69.448 131.994 69.325 132.171C68.5667 133.232 68.8188 134.698 69.8709 135.461C70.2875 135.761 70.7709 135.907 71.2542 135.907C71.9875 135.907 72.7125 135.571 73.1771 134.936C73.2021 134.896 75.8021 131.411 80.9355 130.003C83.5875 129.273 87.3938 129.334 91.1021 130.18C92.1417 130.415 93.1021 130.496 94.0355 130.511C94.4771 131.544 94.648 132.773 94.6709 133.228C94.748 134.49 95.7896 135.467 97.0355 135.467L97.1625 135.461C98.4667 135.39 99.4667 134.286 99.4042 132.982C99.3896 132.744 99.2959 131.34 98.7896 129.728C100.973 128.936 102.873 127.698 104.66 126.536C107.371 124.767 109.933 123.094 113.283 122.984C116.09 122.886 118.402 123.155 120.633 123.417C122.879 123.678 125.088 123.848 127.523 123.705C127.954 124.905 127.921 126.509 127.854 127.044C127.698 128.338 128.613 129.523 129.91 129.694C130.01 129.709 130.11 129.713 130.208 129.713C131.379 129.713 132.398 128.846 132.554 127.65C132.594 127.357 132.835 125.223 132.275 122.998C135.677 122.084 139.894 120.096 143.388 116.023C145.429 117.275 147.813 118.011 150.348 118.011C150.642 118.011 150.94 118 151.233 117.982C152.538 117.896 153.523 116.771 153.438 115.463Z" fill="#EA596E"/>
</svg>
