<svg width="50" height="50" viewBox="0 0 50 50" fill="none" xmlns="http://www.w3.org/2000/svg">
<path d="M39.7291 10.417H11.0833V41.5212H39.7291V10.417Z" stroke="black" stroke-linecap="round" stroke-linejoin="round"/>
<path d="M31.4583 16.2917C32.4018 16.2917 33.1667 15.5268 33.1667 14.5833C33.1667 13.6398 32.4018 12.875 31.4583 12.875C30.5148 12.875 29.75 13.6398 29.75 14.5833C29.75 15.5268 30.5148 16.2917 31.4583 16.2917Z" fill="black"/>
<path d="M25.1041 16.2917C26.0476 16.2917 26.8124 15.5268 26.8124 14.5833C26.8124 13.6398 26.0476 12.875 25.1041 12.875C24.1606 12.875 23.3958 13.6398 23.3958 14.5833C23.3958 15.5268 24.1606 16.2917 25.1041 16.2917Z" fill="black"/>
<path d="M18.9583 16.2917C19.9018 16.2917 20.6667 15.5268 20.6667 14.5833C20.6667 13.6398 19.9018 12.875 18.9583 12.875C18.0148 12.875 17.25 13.6398 17.25 14.5833C17.25 15.5268 18.0148 16.2917 18.9583 16.2917Z" fill="black"/>
<path d="M35.5626 20.833H14.7292V37.4997H35.5626V20.833Z" stroke="black" stroke-linecap="round" stroke-linejoin="round"/>
</svg>
