<svg width="50" height="50" viewBox="0 0 50 50" fill="none" xmlns="http://www.w3.org/2000/svg">
<circle cx="25.0001" cy="18.7503" r="8.33333" fill="#2B7FFF"/>
<circle cx="35.4167" cy="18.75" r="6.25" fill="#2B7FFF"/>
<circle cx="14.5833" cy="18.75" r="6.25" fill="#2B7FFF"/>
<path d="M35.417 27.083C41.2472 27.0833 43.082 33.7438 43.583 36.4131C43.6918 36.9943 43.236 37.5 42.6445 37.5H36.6006C35.7609 34.355 34.1365 30.788 30.9961 28.75C32.1256 27.7524 33.5706 27.083 35.417 27.083Z" fill="#2B7FFF"/>
<path d="M14.5833 27.083C16.4294 27.083 17.8738 27.7526 19.0032 28.75C15.8631 30.7881 14.2393 34.3552 13.3997 37.5H7.35474C6.7634 37.4998 6.30841 36.9943 6.41724 36.4131C6.91832 33.7438 8.75292 27.0831 14.5833 27.083Z" fill="#2B7FFF"/>
<path d="M24.9999 29.167C33.6151 29.167 35.105 37.7173 35.3627 40.6747C35.4106 41.2249 34.9689 41.667 34.4166 41.667H15.5833C15.031 41.667 14.5892 41.2249 14.6371 40.6747C14.8948 37.7173 16.3847 29.167 24.9999 29.167Z" fill="#2B7FFF"/>
</svg>
