<svg width="50" height="50" viewBox="0 0 50 50" fill="none" xmlns="http://www.w3.org/2000/svg">
<mask id="mask0_572_6" style="mask-type:luminance" maskUnits="userSpaceOnUse" x="6" y="10" width="38" height="32">
<path d="M6.1333 10.1338H43.8666V41.3083H6.1333V10.1338Z" fill="white"/>
</mask>
<g mask="url(#mask0_572_6)">
<path d="M38.9614 11.4313C34.0822 8.73025 28.0994 10.8141 25.5989 16.0855C25.3676 16.573 25.1739 17.186 25.0124 17.8969C24.8509 17.186 24.6572 16.573 24.4259 16.0855C21.9254 10.8141 15.9426 8.73025 11.0629 11.4313C7.37178 13.4745 5.66397 17.8844 6.35407 22.2162C6.5598 23.5079 6.9697 24.6849 7.52386 25.7709C8.98532 28.6349 11.453 30.8651 13.8447 32.8797C17.3457 35.8292 21.1411 38.7677 24.9577 41.2141C24.9619 41.2573 24.964 41.2802 24.964 41.2802C24.9801 41.2698 24.9963 41.2594 25.0124 41.249C25.0286 41.2594 25.0447 41.2698 25.0608 41.2802C25.0608 41.2802 25.0629 41.2573 25.0666 41.2141C28.8838 38.7677 32.6786 35.8292 36.1801 32.8797C38.5713 30.8651 41.039 28.6349 42.5009 25.7709C43.0551 24.6849 43.4645 23.5079 43.6702 22.2162C44.3603 17.8844 42.653 13.4745 38.9614 11.4313Z" fill="#FF8904"/>
</g>
</svg>
