<svg width="50" height="50" viewBox="0 0 50 50" fill="none" xmlns="http://www.w3.org/2000/svg">
<path d="M9.375 20.3454C9.375 11.9521 16.4042 5.20801 25 5.20801C33.5958 5.20801 40.625 11.9521 40.625 20.3454C40.625 25.2495 38.5976 29.6741 34.8023 32.4645C34.5403 32.6571 34.3818 32.896 34.3265 33.1305C34.2147 33.6055 34.0919 34.1492 33.9656 34.7326C33.9031 35.0212 33.6483 35.2279 33.353 35.2279H16.647C16.3517 35.2279 16.0969 35.0212 16.0344 34.7326C15.9081 34.1492 15.7853 33.6055 15.6734 33.1305C15.6182 32.896 15.4597 32.6571 15.1977 32.4645C11.4024 29.6741 9.375 25.2495 9.375 20.3454Z" fill="#FF8904"/>
<path d="M17.5011 38.3529C17.1118 38.3529 16.8175 38.7051 16.8823 39.089C17.078 40.2485 17.2209 41.284 17.2642 41.9995C17.3954 44.1687 18.9932 45.9554 21.1297 46.417L21.5379 46.5052C23.818 46.9978 26.182 46.9978 28.4621 46.5052L28.8703 46.417C31.0068 45.9554 32.6046 44.1687 32.7358 41.9995C32.7791 41.284 32.922 40.2485 33.1177 39.089C33.1825 38.7051 32.8882 38.3529 32.4989 38.3529H17.5011Z" fill="#FF8904"/>
</svg>
