<svg width="214" height="206" viewBox="0 0 214 206" fill="none" xmlns="http://www.w3.org/2000/svg">
<g clip-path="url(#clip0_489_116)">
<mask id="mask0_489_116" style="mask-type:luminance" maskUnits="userSpaceOnUse" x="89" y="132" width="36" height="44">
<path d="M89.0239 132.938H124.976V175.02H89.0239V132.938Z" fill="white"/>
</mask>
<g mask="url(#mask0_489_116)">
<path d="M92.7109 133.342H121.255C123.108 133.342 124.61 134.788 124.61 136.571V158.045C124.61 167.403 116.712 175.001 106.982 175.001C97.2539 175.001 89.3538 167.403 89.3538 158.045V136.571C89.3538 134.788 90.8584 133.342 92.7109 133.342Z" fill="#B4E5F9"/>
</g>
<mask id="mask1_489_116" style="mask-type:luminance" maskUnits="userSpaceOnUse" x="89" y="140" width="36" height="36">
<path d="M89.0239 140.08H124.976V175.021H89.0239V140.08Z" fill="white"/>
</mask>
<g mask="url(#mask1_489_116)">
<path d="M124.612 142.552V158.047C124.612 167.409 116.719 175.001 106.982 175.001C104.566 175.001 102.265 174.533 100.17 173.686C119.276 173.158 122.415 157.736 122.415 157.736C114.523 161.219 97.5237 159.515 89.3582 158.418C89.3538 158.296 89.3538 158.174 89.3538 158.047V144.816L106.171 140.32L124.612 142.552Z" fill="#231F20" fill-opacity="0.11"/>
</g>
<mask id="mask2_489_116" style="mask-type:luminance" maskUnits="userSpaceOnUse" x="58" y="30" width="98" height="110">
<path d="M58.208 30.8203H155.776V139.53H58.208V30.8203Z" fill="white"/>
</mask>
<g mask="url(#mask2_489_116)">
<path d="M155.716 77.6939C155.716 51.8066 133.897 30.8203 106.982 30.8203C80.0693 30.8203 58.2502 51.8066 58.2502 77.6939C58.2502 89.9445 63.1366 101.094 71.1371 109.444C73.8143 112.619 86.8237 128.533 88.0564 139.339H125.91C125.91 139.339 129.006 126.902 144.494 107.615C151.503 99.4977 155.716 89.069 155.716 77.6939Z" fill="#FFC34F"/>
</g>
<path d="M87.6619 99.6049C82.9985 103.596 80.5665 109.808 81.7012 115.763C82.7712 121.383 88.2861 124.402 93.8947 122.43C96.5764 121.488 98.7097 119.482 100.212 117.19C101.534 115.171 103.175 112.111 102.535 109.641C101.971 107.459 99.5323 106.499 97.4368 107.386C94.8889 108.465 93.9125 111.538 94.0262 114.016C94.258 119.147 98.7097 123.585 104.008 124.022C109.434 124.469 115.054 121.02 116.969 116.123C117.865 113.827 118.005 111.152 117.016 108.862C116.302 107.214 114.245 104.667 112.065 105.268C110.085 105.813 109.356 108.744 109.285 110.435C109.187 112.767 110.09 115.117 111.614 116.917C115.578 121.595 122.751 120.958 127.069 117.072C132.254 112.407 131.741 104.611 127.985 99.2959C127.27 98.283 125.547 99.2379 126.269 100.259C128.712 103.716 129.789 108.201 128.164 112.205C126.684 115.853 122.691 118.54 118.576 118.349C114.677 118.168 111.608 115.044 111.287 111.347C111.157 109.856 111.612 106.343 113.815 107.729C115.362 108.705 115.778 111.074 115.705 112.69C115.328 121.035 103.039 125.722 97.7088 118.501C96.6388 117.048 95.9767 115.304 96.0035 113.514C96.0169 112.546 96.2197 111.512 96.7079 110.652C97.6954 108.903 100.711 108.044 100.66 110.877C100.593 114.66 96.9531 119.269 93.3664 120.587C91.3512 121.329 88.8991 121.351 86.9687 120.353C84.4453 119.05 83.6049 116.297 83.4377 113.714C83.1211 108.86 85.3235 104.16 89.0663 100.957C90.0249 100.139 88.616 98.7916 87.6619 99.6049Z" fill="#231F20" fill-opacity="0.15"/>
<path d="M154.611 87.6445C152.934 95.1228 149.399 101.938 144.495 107.618C129.006 126.903 125.91 139.34 125.91 139.34H88.0566C86.8238 128.536 73.8144 112.62 71.1372 109.444C66.953 105.075 63.6182 99.9402 61.3979 94.2837C80.1764 108.255 117.633 126.398 154.611 87.6445Z" fill="#231F20" fill-opacity="0.11"/>
<path d="M126.786 155.592C126.786 159.454 87.5461 159.454 87.5461 155.592V136.758C87.5461 138.41 126.786 138.41 126.786 136.758V155.592Z" fill="white"/>
<path d="M105.883 145.024C96.0458 145.024 90.4572 142.859 90.1117 142.722C89.6035 142.52 89.3649 141.962 89.5745 141.473C89.784 140.986 90.3658 140.756 90.8719 140.958C91.0368 141.022 103.382 145.739 123.69 140.913C124.22 140.786 124.76 141.098 124.891 141.61C125.023 142.123 124.699 142.64 124.167 142.767C117.051 144.458 110.912 145.024 105.883 145.024Z" fill="#231F20"/>
<path d="M105.883 150.084C96.0458 150.084 90.4572 147.919 90.1117 147.782C89.6035 147.578 89.3649 147.02 89.5745 146.533C89.784 146.046 90.3636 145.814 90.8719 146.016C90.9945 146.063 103.346 150.807 123.69 145.97C124.222 145.844 124.76 146.157 124.891 146.668C125.023 147.181 124.699 147.7 124.167 147.827C117.051 149.518 110.912 150.084 105.883 150.084Z" fill="#231F20"/>
<path d="M105.883 155.141C96.0458 155.141 90.4572 152.978 90.1117 152.839C89.6035 152.637 89.3649 152.079 89.5745 151.592C89.784 151.105 90.3636 150.873 90.8719 151.075C90.9945 151.122 103.346 155.867 123.69 151.03C124.222 150.903 124.76 151.217 124.891 151.727C125.023 152.24 124.699 152.76 124.167 152.886C117.051 154.577 110.912 155.141 105.883 155.141Z" fill="#231F20"/>
<mask id="mask3_489_116" style="mask-type:luminance" maskUnits="userSpaceOnUse" x="-22" y="-21" width="258" height="248">
<path d="M235.4 -20.5996H-21.3999V226.6H235.4V-20.5996Z" fill="black" fill-opacity="0.42"/>
</mask>
<g mask="url(#mask3_489_116)">
<mask id="mask4_489_116" style="mask-type:luminance" maskUnits="userSpaceOnUse" x="65" y="36" width="38" height="40">
<path d="M102.72 36.2568H65.0562V75.2595H102.72V36.2568Z" fill="white"/>
</mask>
<g mask="url(#mask4_489_116)">
<path d="M95.7541 41.7163C95.9614 41.8815 96.1486 42.0704 96.3158 42.2785C96.483 42.4888 96.6279 42.7184 96.755 42.9695C96.8798 43.2205 96.9846 43.4909 97.0693 43.7827C97.1517 44.0724 97.2142 44.3814 97.2543 44.7097C97.2944 45.0359 97.3122 45.3792 97.3078 45.7397C97.3056 46.1002 97.2788 46.4758 97.232 46.8684C97.1852 47.259 97.1161 47.6624 97.0269 48.0787C96.9355 48.495 96.8241 48.9242 96.6925 49.3619C96.5588 49.8018 96.4072 50.2481 96.2333 50.7052C96.0595 51.1623 95.8655 51.6258 95.6537 52.0978C95.4397 52.5678 95.2079 53.042 94.9582 53.5227C94.7086 54.0012 94.4411 54.484 94.1557 54.9668C93.8704 55.4518 93.5695 55.9367 93.2529 56.4196C92.9342 56.9024 92.6042 57.3852 92.2565 57.8637C91.911 58.3422 91.5521 58.8165 91.1798 59.2864C90.8075 59.7542 90.4241 60.2177 90.0296 60.6726C89.6372 61.1275 89.2337 61.5738 88.8214 62.0116C88.4067 62.4472 87.9876 62.8742 87.5619 63.2884C87.1339 63.7025 86.7014 64.1016 86.2645 64.49C85.8276 64.8784 85.3884 65.2497 84.9448 65.608C84.5012 65.9642 84.0576 66.3054 83.6118 66.6294C83.166 66.9513 82.7223 67.2582 82.281 67.5436C81.8374 67.8311 81.3982 68.0972 80.9635 68.344C80.5266 68.5907 80.0964 68.8182 79.6728 69.022C79.2471 69.2259 78.8302 69.4104 78.4201 69.5714C78.0099 69.7323 77.6109 69.8696 77.2185 69.9855C76.8284 70.0992 76.4495 70.1915 76.0817 70.2602C75.7116 70.3288 75.3572 70.3739 75.0161 70.3954C74.6751 70.4168 74.3474 70.4147 74.0353 70.3889C73.7232 70.361 73.4267 70.3117 73.1481 70.2387C72.8672 70.1658 72.6064 70.0692 72.3612 69.949C72.116 69.8289 71.8908 69.6851 71.6857 69.5199C71.4784 69.3546 71.2912 69.1658 71.124 68.9577C70.9568 68.7474 70.8097 68.5178 70.6848 68.2667C70.56 68.0156 70.4552 67.7453 70.3705 67.4534C70.2881 67.1637 70.2256 66.8547 70.1855 66.5264C70.1454 66.2003 70.1276 65.8569 70.132 65.4964C70.1342 65.1359 70.161 64.7604 70.2078 64.3699C70.2546 63.9793 70.3237 63.5738 70.4129 63.1575C70.5043 62.7412 70.6157 62.3142 70.7473 61.8743C70.881 61.4344 71.0326 60.988 71.2065 60.531C71.3803 60.0739 71.5743 59.6104 71.7861 59.1383C72.0001 58.6684 72.2319 58.1942 72.4816 57.7135C72.7312 57.235 72.9987 56.7522 73.2841 56.2693C73.5694 55.7844 73.8703 55.3016 74.1869 54.8166C74.5034 54.3338 74.8356 53.851 75.1833 53.3725C75.5288 52.8939 75.8877 52.4197 76.26 51.9498C76.6323 51.482 77.0157 51.0185 77.408 50.5636C77.8026 50.1087 78.2061 49.6623 78.6185 49.2246C79.0308 48.789 79.4522 48.3641 79.8779 47.9478C80.3059 47.5337 80.7362 47.1345 81.1753 46.7461C81.6122 46.3577 82.0514 45.9865 82.495 45.6282C82.9386 45.2719 83.3822 44.9308 83.828 44.6067C84.2716 44.2849 84.7152 43.978 85.1588 43.6926C85.6024 43.4051 86.0416 43.139 86.4763 42.8922C86.9132 42.6454 87.3434 42.4201 87.767 42.2141C88.1927 42.0103 88.6096 41.8257 89.0197 41.6648C89.4299 41.5039 89.8289 41.3665 90.2213 41.2507C90.6114 41.1369 90.9903 41.0447 91.3581 40.976C91.726 40.9073 92.0826 40.8623 92.4237 40.8408C92.7647 40.8193 93.0924 40.8215 93.4045 40.8472C93.7166 40.8751 94.0131 40.9245 94.2917 40.9974C94.5726 41.0704 94.8334 41.167 95.0786 41.2871C95.3216 41.4073 95.549 41.5511 95.7541 41.7163Z" fill="white"/>
</g>
</g>
</g>
<defs>
<clipPath id="clip0_489_116">
<rect width="214" height="206" fill="white"/>
</clipPath>
</defs>
</svg>
