<svg width="50" height="50" viewBox="0 0 50 50" fill="none" xmlns="http://www.w3.org/2000/svg">
<path d="M25.146 22.916C27.6658 22.916 29.7085 20.8733 29.7085 18.3535C29.7085 15.8337 27.6658 13.791 25.146 13.791C22.6262 13.791 20.5835 15.8337 20.5835 18.3535C20.5835 20.8733 22.6262 22.916 25.146 22.916Z" stroke="black" stroke-linecap="round" stroke-linejoin="round"/>
<path d="M16.8126 18.75H14.7292" stroke="black" stroke-linecap="round" stroke-linejoin="round"/>
<path d="M35.6668 18.75H33.5835" stroke="black" stroke-linecap="round" stroke-linejoin="round"/>
<path d="M25.1667 8.33301V10.4163" stroke="black" stroke-linecap="round" stroke-linejoin="round"/>
<path d="M33.5417 10.333L32.0625 11.8122" stroke="black" stroke-linecap="round" stroke-linejoin="round"/>
<path d="M18.8127 11.8122L17.3335 10.333" stroke="black" stroke-linecap="round" stroke-linejoin="round"/>
<path d="M14.7292 31.2497V27.083H35.6667V30.5622" stroke="black" stroke-linecap="round" stroke-linejoin="round"/>
<path d="M14.7292 39.792V41.4795" stroke="black" stroke-linecap="round" stroke-linejoin="round"/>
<path d="M35.5625 39.792V41.4795" stroke="black" stroke-linecap="round" stroke-linejoin="round"/>
<path d="M33.4999 35.4167V31.25H38.1249V38.6458C38.1249 39.1667 37.7083 39.5833 37.1874 39.5833H12.9583C12.4374 39.5833 12.0208 39.1667 12.0208 38.6458V31.25H16.7499V35.4167H33.4791H33.4999Z" stroke="black" stroke-linecap="round" stroke-linejoin="round"/>
<path d="M25.1667 27.083V34.5205" stroke="black" stroke-linecap="round" stroke-linejoin="round"/>
</svg>
